<svg width="120" height="60" viewBox="0 0 120 60" fill="none" xmlns="http://www.w3.org/2000/svg">
<path d="M31.4867 21.6543C34.0706 19.3724 38.0635 19.4482 40.5528 21.901C43.0409 24.3549 43.1267 28.2629 40.8124 30.812L31.4845 40L22.1589 30.812C19.8446 28.2629 19.9315 24.3484 22.4185 21.901C24.91 19.4514 28.8952 19.3692 31.4867 21.6543ZM38.9952 23.4298C37.3452 21.8047 34.6833 21.7387 32.9563 23.2643L31.4878 24.5604L30.0183 23.2653C28.2858 21.7376 25.6294 21.8047 23.975 23.432C22.336 25.0441 22.2535 27.6245 23.7638 29.3297L31.4856 36.937L39.2075 29.3308C40.7189 27.6245 40.6364 25.0473 38.9952 23.4298Z" fill="#838383"/>
<circle cx="44.7" cy="20.7" r="8.7" fill="#FFA542"/>
<path d="M48.8075 24.695V26H41.2625V24.98L45.5375 20.855C46.0575 20.355 46.4075 19.925 46.5875 19.565C46.7675 19.195 46.8575 18.825 46.8575 18.455C46.8575 17.905 46.6625 17.48 46.2725 17.18C45.8925 16.87 45.3425 16.715 44.6225 16.715C43.4625 16.715 42.5675 17.095 41.9375 17.855L40.9175 16.97C41.3275 16.47 41.8625 16.08 42.5225 15.8C43.1925 15.52 43.9375 15.38 44.7575 15.38C45.8575 15.38 46.7325 15.645 47.3825 16.175C48.0325 16.695 48.3575 17.405 48.3575 18.305C48.3575 18.865 48.2375 19.395 47.9975 19.895C47.7575 20.395 47.3025 20.965 46.6325 21.605L43.4225 24.695H48.8075Z" fill="white"/>
<path d="M91.0859 25.046L87.4858 21.5053L89.0566 19.96L92.6556 23.5017H109.576C109.749 23.5017 109.919 23.5415 110.074 23.6179C110.229 23.6943 110.363 23.8052 110.466 23.9417C110.57 24.0783 110.639 24.2367 110.669 24.4043C110.699 24.572 110.689 24.7442 110.639 24.9073L107.975 33.6443C107.906 33.8693 107.766 34.0667 107.574 34.2069C107.383 34.3472 107.15 34.423 106.911 34.423H93.3061V36.6072H105.517V38.7915H92.196C91.9016 38.7915 91.6192 38.6764 91.411 38.4716C91.2028 38.2668 91.0859 37.989 91.0859 37.6993V25.046ZM93.3061 25.686V32.2387H106.086L108.084 25.686H93.3061ZM92.751 43.16C92.3094 43.16 91.8859 42.9874 91.5736 42.6801C91.2613 42.3729 91.0859 41.9562 91.0859 41.5218C91.0859 41.0873 91.2613 40.6706 91.5736 40.3634C91.8859 40.0562 92.3094 39.8836 92.751 39.8836C93.1927 39.8836 93.6162 40.0562 93.9285 40.3634C94.2407 40.6706 94.4162 41.0873 94.4162 41.5218C94.4162 41.9562 94.2407 42.3729 93.9285 42.6801C93.6162 42.9874 93.1927 43.16 92.751 43.16ZM106.072 43.16C105.631 43.16 105.207 42.9874 104.895 42.6801C104.582 42.3729 104.407 41.9562 104.407 41.5218C104.407 41.0873 104.582 40.6706 104.895 40.3634C105.207 40.0562 105.631 39.8836 106.072 39.8836C106.514 39.8836 106.937 40.0562 107.25 40.3634C107.562 40.6706 107.737 41.0873 107.737 41.5218C107.737 41.9562 107.562 42.3729 107.25 42.6801C106.937 42.9874 106.514 43.16 106.072 43.16Z" fill="#838383"/>
<circle cx="111.186" cy="21.7" r="8.7" fill="#FFA542"/>
<path d="M112.199 16.5V27H110.714V17.805H108.344V16.5H112.199Z" fill="white"/>
</svg>
